<svg width="32" height="32" viewBox="0 0 32 32" fill="none" xmlns="http://www.w3.org/2000/svg">
<path d="M9.08822 1.59961C8.92822 1.59961 8.60822 1.59961 8.32022 1.59961C7.68022 1.63161 6.84822 1.66361 6.49622 1.75961C5.92022 1.88761 5.37622 2.04761 4.92822 2.27161C4.41622 2.52761 3.93622 2.87961 3.52022 3.29561C3.10422 3.71161 2.78422 4.15961 2.49622 4.70361C2.27222 5.15161 2.08022 5.69561 1.98422 6.23961C1.92022 6.62361 1.85622 7.45561 1.82422 8.09561V8.86361V22.9116V23.6796C1.85622 24.3196 1.88822 25.1516 1.98422 25.5036C2.11222 26.0796 2.27222 26.6236 2.49622 27.0716C2.75222 27.5836 3.10422 28.0636 3.52022 28.4796C3.93622 28.8956 4.38422 29.2156 4.92822 29.5036C5.37622 29.7276 5.92022 29.9196 6.46422 30.0156C6.84822 30.0796 7.68022 30.1436 8.32022 30.1756H9.08822H23.1362H23.9042C24.5442 30.1436 25.3762 30.1116 25.7282 30.0156C26.3042 29.8876 26.8482 29.7276 27.2962 29.5036C27.8082 29.2476 28.2882 28.8956 28.7042 28.4796C29.1202 28.0636 29.4402 27.6156 29.7282 27.0716C29.9522 26.6236 30.1442 26.0796 30.2402 25.5356C30.3042 25.1516 30.3682 24.3196 30.4002 23.6796C30.4002 23.4236 30.4002 23.0716 30.4002 22.9116V8.86361C30.4002 8.70361 30.4002 8.38361 30.4002 8.09561C30.3682 7.45561 30.3362 6.62361 30.2402 6.27161C30.1122 5.69561 29.9522 5.15161 29.7282 4.70361C29.4722 4.19161 29.1202 3.71161 28.7042 3.29561C28.2882 2.87961 27.8402 2.55961 27.2962 2.27161C26.8482 2.04761 26.3042 1.85561 25.7602 1.75961C25.3762 1.69561 24.5442 1.63161 23.9042 1.59961C23.6482 1.59961 23.2962 1.59961 23.1362 1.59961H9.08822Z" fill="url(#paint0_linear_17997_1198)"/>
<path d="M21.3125 17.4072C21.0565 17.2792 19.7765 16.6712 19.5525 16.5752C19.3285 16.4792 19.1365 16.4472 18.9765 16.7032C18.8165 16.9592 18.3045 17.5352 18.1765 17.6952C18.0165 17.8552 17.8885 17.8872 17.6325 17.7592C17.3765 17.6312 16.5445 17.3752 15.5525 16.5112C14.7845 15.8392 14.2725 15.0072 14.1125 14.7512C13.9525 14.4952 14.1125 14.3672 14.2405 14.2392C14.3685 14.1112 14.4965 13.9512 14.6245 13.7912C14.7525 13.6312 14.7845 13.5352 14.8805 13.3752C14.9765 13.2152 14.9125 13.0552 14.8485 12.9272C14.7845 12.7992 14.2725 11.5512 14.0485 11.0392C13.8245 10.5592 13.6325 10.6232 13.4725 10.5912C13.3125 10.5912 13.1525 10.5912 12.9925 10.5912C12.8325 10.5912 12.5445 10.6552 12.3205 10.9112C12.0965 11.1672 11.4245 11.7752 11.4245 13.0232C11.4245 14.2712 12.3525 15.4552 12.4805 15.6472C12.6085 15.8072 14.3045 18.3672 16.8645 19.4552C17.4725 19.7112 17.9525 19.8712 18.3365 19.9992C18.9445 20.1912 19.5205 20.1592 19.9685 20.0952C20.4485 20.0312 21.5045 19.4872 21.6965 18.9112C21.9205 18.3352 21.9205 17.8232 21.8565 17.7272C21.7285 17.5992 21.5685 17.5352 21.3125 17.4072ZM16.4165 23.9992C14.8805 23.9992 13.4085 23.5832 12.0965 22.8152L11.7765 22.6232L8.57653 23.4552L9.44053 20.3512L9.24853 20.0312C8.41653 18.6872 7.96853 17.1512 7.96853 15.5512C7.96853 10.9112 11.7765 7.13523 16.4485 7.13523C18.6565 7.13523 20.8005 7.99923 22.4005 9.59923C24.0005 11.1992 24.8645 13.3112 24.8645 15.5512C24.8645 20.1912 21.0565 23.9992 16.4165 23.9992ZM23.6165 8.38323C21.6965 6.46323 19.1365 5.40723 16.4165 5.40723C10.8165 5.40723 6.24053 9.95123 6.24053 15.5512C6.24053 17.3432 6.72053 19.0712 7.58453 20.6072L6.14453 25.8552L11.5205 24.4472C12.9925 25.2472 14.6885 25.6952 16.3845 25.6952C21.9845 25.6952 26.5605 21.1512 26.5605 15.5512C26.5925 12.8632 25.5365 10.3032 23.6165 8.38323Z" fill="white"/>
<defs>
<linearGradient id="paint0_linear_17997_1198" x1="16.1218" y1="1.60601" x2="16.1218" y2="30.1564" gradientUnits="userSpaceOnUse">
<stop stop-color="#62FA7F"/>
<stop offset="0.6865" stop-color="#22CC40"/>
<stop offset="1" stop-color="#05B723"/>
</linearGradient>
</defs>
</svg>
